<COLLADA xmlns="http://www.collada.org/2005/11/COLLADASchema" version="1.4.1">
  <asset>
    <contributor />
    <created>2025-07-02T16:06:21.442498</created>
    <modified>2025-07-02T16:06:21.442500</modified>
    <unit name="meter" meter="1.0" />
    <up_axis>Z_UP</up_axis>
  </asset>
  <library_effects>
    <effect id="effect_Extrude" name="effect_Extrude">
      <profile_COMMON>
        <technique sid="common">
          <phong>
            <emission>
              <color>0.0 0.0 0.0 1.0</color>
            </emission>
            <ambient>
              <color>0.0 0.0 0.0 1.0</color>
            </ambient>
            <diffuse>
              <color>0.800000011920929 0.800000011920929 0.800000011920929 1.0</color>
            </diffuse>
            <specular>
              <color>1 1 1 1.0</color>
            </specular>
            <shininess>
              <float>0.0</float>
            </shininess>
            <reflective>
              <color>0.0 0.0 0.0 1.0</color>
            </reflective>
            <reflectivity>
              <float>0.0</float>
            </reflectivity>
            <transparent>
              <color>0.0 0.0 0.0 1.0</color>
            </transparent>
            <transparency>
              <float>1.0</float>
            </transparency>
          </phong>
        </technique>
        <extra>
          <technique profile="GOOGLEEARTH">
            <double_sided>0</double_sided>
          </technique>
        </extra>
      </profile_COMMON>
    </effect>
  </library_effects>
  <library_geometries>
    <geometry id="geometry0" name="Extrude">
      <mesh>
        <source id="cubeverts-array0">
          <float_array count="48" id="cubeverts-array0-array">-3 -3 0 3 -3 0 -3 -3 3 3 -3 3 3 3 0 3 3 3 -3 3 0 -3 3 3 -2.7 2.7 0 2.7 2.7 0 -2.7 2.7 3 2.7 2.7 3 2.7 -2.7 0 2.7 -2.7 3 -2.7 -2.7 0 -2.7 -2.7 3</float_array>
          <technique_common>
            <accessor count="16" source="#cubeverts-array0-array" stride="3">
              <param type="float" name="X" />
              <param type="float" name="Y" />
              <param type="float" name="Z" />
            </accessor>
          </technique_common>
        </source>
        <source id="cubenormals-array0">
          <float_array count="96" id="cubenormals-array0-array">0 -1 0 0 -1 0 1 0 0 1 -0 0 0 1 -0 0 1 0 -1 0 0 -1 -0 0 0 -1 0 0 -1 0 -1 0 0 -1 -0 0 0 1 -0 0 1 0 1 0 0 1 -0 0 0 0 -1 0 0 -1 0 0 -1 0 -0 -1 0 0 -1 0 0 -1 0 0 -1 0 0 -1 0 0 1 0 0 1 0 0 1 0 0 1 0 0 1 0 0 1 0 0 1 0 0 1</float_array>
          <technique_common>
            <accessor count="32" source="#cubenormals-array0-array" stride="3">
              <param type="float" name="X" />
              <param type="float" name="Y" />
              <param type="float" name="Z" />
            </accessor>
          </technique_common>
        </source>
        <vertices id="cubeverts-array0-vertices">
          <input semantic="POSITION" source="#cubeverts-array0" />
        </vertices>
        <triangles count="32" material="ref_Extrude">
          <input offset="0" semantic="VERTEX" source="#cubeverts-array0-vertices" />
          <input offset="1" semantic="NORMAL" source="#cubenormals-array0" />
          <p>0 0 1 0 2 0 2 1 1 1 3 1 1 2 4 2 3 2 3 3 4 3 5 3 4 4 6 4 5 4 5 5 6 5 7 5 6 6 0 6 7 6 7 7 0 7 2 7 8 8 9 8 10 8 10 9 9 9 11 9 9 10 12 10 11 10 11 11 12 11 13 11 12 12 14 12 13 12 13 13 14 13 15 13 14 14 8 14 15 14 15 15 8 15 10 15 6 16 8 16 0 16 0 17 8 17 14 17 0 18 12 18 1 18 14 19 12 19 0 19 9 20 4 20 12 20 12 21 4 21 1 21 6 22 4 22 8 22 8 23 4 23 9 23 10 24 7 24 2 24 10 25 2 25 15 25 13 26 2 26 3 26 13 27 15 27 2 27 5 28 11 28 13 28 5 29 13 29 3 29 5 30 7 30 10 30 5 31 10 31 11 31</p>
        </triangles>
      </mesh>
    </geometry>
  </library_geometries>
  <library_materials>
    <material id="mat_Extrude" name="Extrude">
      <instance_effect url="#effect_Extrude" />
    </material>
  </library_materials>
  <library_visual_scenes>
    <visual_scene id="myscene">
      <node id="node0" name="node0">
        <instance_geometry url="#geometry0">
          <bind_material>
            <technique_common>
              <instance_material symbol="ref_Extrude" target="#mat_Extrude" />
            </technique_common>
          </bind_material>
        </instance_geometry>
      </node>
    </visual_scene>
  </library_visual_scenes>
  <scene>
    <instance_visual_scene url="#myscene" />
  </scene>
</COLLADA>
